<svg width="17" height="14" viewBox="0 0 17 14" xmlns="http://www.w3.org/2000/svg"><title>F4F41C2A-3DF3-4085-A029-309949151127</title><path d="M15.26 3.487c.006.152.01.304.01.458C15.27 8.615 11.762 14 5.347 14A9.784 9.784 0 0 1 0 12.413a6.939 6.939 0 0 0 5.164-1.464c-1.527-.029-2.815-1.05-3.258-2.455a3.466 3.466 0 0 0 1.574-.06C1.886 8.11.685 6.681.685 4.97v-.045a3.45 3.45 0 0 0 1.58.442A3.546 3.546 0 0 1 .711 2.425c0-.649.172-1.256.472-1.778 1.72 2.138 4.29 3.546 7.188 3.693a3.622 3.622 0 0 1-.09-.806C8.282 1.583 9.843 0 11.77 0c1.003 0 1.91.43 2.546 1.117A6.93 6.93 0 0 0 16.53.259a3.534 3.534 0 0 1-1.533 1.955A6.877 6.877 0 0 0 17 1.658a7.145 7.145 0 0 1-1.74 1.829" fill="#FFF" fill-rule="evenodd"/></svg>